<svg xmlns="http://www.w3.org/2000/svg" width="128" height="128" id="alarm"><g transform="translate(0 -1020.362)"><circle cx="16" cy="1036.362" r="16" fill="#424242" fill-rule="evenodd"></circle><path fill="#1f212a" style="line-height:normal;text-indent:0;text-align:start;text-decoration-line:none;text-decoration-style:solid;text-decoration-color:#000;text-transform:none;block-progression:tb;isolation:auto;mix-blend-mode:normal" d="M31.139 21.13a16 16 0 0 0 .146-.401 16 16 0 0 0 .397-1.551 16 16 0 0 0 .027-.184l-9.102-9.101c-.617-.618-1.52-.897-2.603-.897a.5.5 0 0 0-.05 0 .5.5 0 1 0 .05 1l2.5 2.5a.5.5 0 0 0 .508.508l8.127 8.127zM19.166 31.667a16 16 0 0 0 1.113-.25 16 16 0 0 0 1.518-.504 16 16 0 0 0 1.46-.652 16 16 0 0 0 1.388-.797 16 16 0 0 0 1.3-.93 16 16 0 0 0 1.201-1.054 16 16 0 0 0 1.092-1.172 16 16 0 0 0 .967-1.272 16 16 0 0 0 .836-1.365 16 16 0 0 0 .695-1.44 16 16 0 0 0 .184-.5L20.59 11.4a6.48 6.48 0 0 0-4.594-1.906c-.896 0-1.75.182-2.527.512-.107.045-.209.1-.313.15l-.652-.652a.5.5 0 0 0-.508-.508c-1.083 0-1.986.279-2.603.897-.618.617-.897 1.52-.897 2.603a.5.5 0 0 0 .508.508l.86.86a6.46 6.46 0 0 0-.368 2.13 6.47 6.47 0 0 0 1.809 4.486l-1.662 1.663a.5.5 0 1 0 .707.707l8.816 8.816z" color="#000" font-family="sans-serif" font-weight="400" transform="translate(0 1020.362)"></path><path style="line-height:normal;text-indent:0;text-align:start;text-decoration-line:none;text-decoration-style:solid;text-decoration-color:#000;text-transform:none;block-progression:tb;isolation:auto;mix-blend-mode:normal" fill="#fff" d="M4.496 1.502c-1.083 0-1.986.279-2.603.896-.618.618-.897 1.52-.897 2.604a.5.5 0 1 0 1 0c0-.917.221-1.514.604-1.897.382-.382.98-.603 1.896-.603a.5.5 0 1 0 0-1zm7.957 0a.5.5 0 1 0 .05 1c.918 0 1.515.221 1.897.603.383.383.604.98.604 1.897a.5.5 0 1 0 1 0c0-1.083-.279-1.986-.897-2.604-.617-.617-1.52-.896-2.603-.896a.5.5 0 0 0-.05 0zM8.496 2a6.508 6.508 0 0 0-6.5 6.5c0 1.74.691 3.318 1.809 4.486l-1.662 1.662a.5.5 0 1 0 .707.707l1.7-1.7A6.461 6.461 0 0 0 8.497 15c1.484 0 2.85-.505 3.945-1.346l1.702 1.701a.5.5 0 1 0 .707-.707l-1.662-1.662A6.471 6.471 0 0 0 14.995 8.5c0-3.584-2.916-6.5-6.5-6.5Zm0 1c3.044 0 5.5 2.457 5.5 5.5S11.54 14 8.496 14a5.492 5.492 0 0 1-5.5-5.5c0-3.043 2.457-5.5 5.5-5.5zm-.008 1a.5.5 0 0 0-.492.508V8.5a.5.5 0 0 0 .5.5h3.62a.5.5 0 1 0 0-1h-3.12V4.508A.5.5 0 0 0 8.488 4Z" color="#000" font-family="sans-serif" font-weight="400" overflow="visible" transform="translate(7.5 1027.857)"></path></g></svg>